<svg width="50" height="50" viewBox="0 0 50 50" fill="none" xmlns="http://www.w3.org/2000/svg">
<path d="M14.4583 10.4166C14.4578 11.5216 14.0183 12.5812 13.2365 13.3622C12.4547 14.1432 11.3947 14.5817 10.2896 14.5811C9.18451 14.5806 8.12493 14.1411 7.34392 13.3593C6.5629 12.5775 6.12445 11.5175 6.125 10.4124C6.12555 9.30732 6.56507 8.24773 7.34686 7.46672C8.12865 6.68571 9.18868 6.24725 10.2938 6.2478C11.3988 6.24836 12.4584 6.68787 13.2394 7.46966C14.0204 8.25146 14.4589 9.31148 14.4583 10.4166ZM14.5833 17.6666H6.25V43.7499H14.5833V17.6666ZM27.75 17.6666H19.4583V43.7499H27.6667V30.0624C27.6667 22.4374 37.6042 21.7291 37.6042 30.0624V43.7499H45.8333V27.2291C45.8333 14.3749 31.125 14.8541 27.6667 21.1666L27.75 17.6666Z" fill="#5418D6"/>
</svg>