<svg width="29" height="29" viewBox="0 0 29 29" fill="none" xmlns="http://www.w3.org/2000/svg">
<path d="M7.07102 21.4975C3.16114 17.5876 3.16114 11.2652 7.07102 7.35534C10.9809 3.44545 17.3033 3.44545 21.2132 7.35534C25.123 11.2652 25.123 17.5876 21.2132 21.4975C17.3033 25.4074 10.9809 25.4074 7.07102 21.4975ZM20.3813 8.18723C16.9289 4.73488 11.3553 4.73488 7.90291 8.18723C4.45057 11.6396 4.45057 17.2132 7.90291 20.6656C11.3553 24.1179 16.9289 24.1179 20.3813 20.6656C23.8336 17.2132 23.8336 11.6396 20.3813 8.18723Z" fill="#5418D6"/>
<path d="M9.89893 10.1838L18.3842 18.6691L9.89893 10.1838Z" fill="#5418D6" stroke="#5418D6"/>
<path d="M18.3843 10.1837L9.899 18.669L18.3843 10.1837Z" fill="#5418D6" stroke="#5418D6"/>
</svg>
