<svg width="16" height="20" viewBox="0 0 16 20" fill="none" xmlns="http://www.w3.org/2000/svg">
<path d="M8 11.9998C10.206 11.9998 12 10.2058 12 7.99985C12 5.79385 10.206 3.99985 8 3.99985C5.794 3.99985 4 5.79385 4 7.99985C4 10.2058 5.794 11.9998 8 11.9998ZM8 5.99985C9.103 5.99985 10 6.89685 10 7.99985C10 9.10285 9.103 9.99985 8 9.99985C6.897 9.99985 6 9.10285 6 7.99985C6 6.89685 6.897 5.99985 8 5.99985Z" fill="#5418D6"/>
<path d="M7.42009 19.8138C7.58934 19.9347 7.79211 19.9997 8.00009 19.9997C8.20806 19.9997 8.41084 19.9347 8.58009 19.8138C8.88409 19.5988 16.0291 14.4398 16.0001 7.99985C16.0001 3.58885 12.4111 -0.000152588 8.00009 -0.000152588C3.58909 -0.000152588 8.80377e-05 3.58885 8.80377e-05 7.99485C-0.028912 14.4398 7.11609 19.5988 7.42009 19.8138ZM8.00009 1.99985C11.3091 1.99985 14.0001 4.69085 14.0001 8.00485C14.0211 12.4428 9.61209 16.4278 8.00009 17.7348C6.38909 16.4268 1.97909 12.4408 2.00009 7.99985C2.00009 4.69085 4.69109 1.99985 8.00009 1.99985Z" fill="#5418D6"/>
</svg>
