<svg width="19" height="20" viewBox="0 0 19 20" fill="none" xmlns="http://www.w3.org/2000/svg">
<path d="M17.6923 3.07692H13.8462V2.30769C13.8462 1.69565 13.603 1.10868 13.1702 0.675907C12.7375 0.243131 12.1505 0 11.5385 0H6.92308C6.31104 0 5.72407 0.243131 5.29129 0.675907C4.85852 1.10868 4.61538 1.69565 4.61538 2.30769V3.07692H0.769231C0.565218 3.07692 0.369561 3.15797 0.225303 3.30223C0.0810439 3.44648 0 3.64214 0 3.84615C0 4.05017 0.0810439 4.24582 0.225303 4.39008C0.369561 4.53434 0.565218 4.61538 0.769231 4.61538H1.53846V18.4615C1.53846 18.8696 1.70055 19.2609 1.98907 19.5494C2.27758 19.8379 2.6689 20 3.07692 20H15.3846C15.7926 20 16.184 19.8379 16.4725 19.5494C16.761 19.2609 16.9231 18.8696 16.9231 18.4615V4.61538H17.6923C17.8963 4.61538 18.092 4.53434 18.2362 4.39008C18.3805 4.24582 18.4615 4.05017 18.4615 3.84615C18.4615 3.64214 18.3805 3.44648 18.2362 3.30223C18.092 3.15797 17.8963 3.07692 17.6923 3.07692ZM6.15385 2.30769C6.15385 2.10368 6.23489 1.90802 6.37915 1.76376C6.52341 1.61951 6.71906 1.53846 6.92308 1.53846H11.5385C11.7425 1.53846 11.9381 1.61951 12.0824 1.76376C12.2266 1.90802 12.3077 2.10368 12.3077 2.30769V3.07692H6.15385V2.30769ZM15.3846 18.4615H3.07692V4.61538H15.3846V18.4615ZM7.69231 8.46154V14.6154C7.69231 14.8194 7.61126 15.0151 7.46701 15.1593C7.32275 15.3036 7.12709 15.3846 6.92308 15.3846C6.71906 15.3846 6.52341 15.3036 6.37915 15.1593C6.23489 15.0151 6.15385 14.8194 6.15385 14.6154V8.46154C6.15385 8.25753 6.23489 8.06187 6.37915 7.91761C6.52341 7.77335 6.71906 7.69231 6.92308 7.69231C7.12709 7.69231 7.32275 7.77335 7.46701 7.91761C7.61126 8.06187 7.69231 8.25753 7.69231 8.46154ZM12.3077 8.46154V14.6154C12.3077 14.8194 12.2266 15.0151 12.0824 15.1593C11.9381 15.3036 11.7425 15.3846 11.5385 15.3846C11.3344 15.3846 11.1388 15.3036 10.9945 15.1593C10.8503 15.0151 10.7692 14.8194 10.7692 14.6154V8.46154C10.7692 8.25753 10.8503 8.06187 10.9945 7.91761C11.1388 7.77335 11.3344 7.69231 11.5385 7.69231C11.7425 7.69231 11.9381 7.77335 12.0824 7.91761C12.2266 8.06187 12.3077 8.25753 12.3077 8.46154Z" fill="black"/>
</svg>
