<svg width="346" height="406" viewBox="0 0 346 406" fill="none" xmlns="http://www.w3.org/2000/svg">
<path d="M172.731 0C129.857 0 94.6643 35.1624 94.6643 78V93.6H17.5651L16.5971 108.233L0.98365 389.033L0 405.6H345.447L344.479 389.017L328.866 108.217L327.882 93.6H250.799V78C250.799 35.1624 215.606 0 172.731 0ZM172.731 31.2C185.154 31.2 197.068 36.1307 205.853 44.9074C214.637 53.6841 219.572 65.5879 219.572 78V93.6H125.891V78C125.891 65.5879 130.826 53.6841 139.61 44.9074C148.395 36.1307 160.309 31.2 172.731 31.2ZM46.8403 124.8H94.6643V171.6H125.891V124.8H219.572V171.6H250.799V124.8H298.623L312.284 374.4H33.1942L46.8403 124.8Z" fill="black"/>
<path d="M116 340C130.592 328.66 148.359 322 167.5 322C186.641 322 204.408 328.66 219 340" stroke="#5418D6" stroke-width="7" stroke-linecap="round"/>
<path d="M219.5 254C229.165 254 237 242.359 237 228C237 213.641 229.165 202 219.5 202C209.835 202 202 213.641 202 228C202 242.359 209.835 254 219.5 254Z" fill="#5418D6"/>
<path d="M116.5 254C126.165 254 134 242.359 134 228C134 213.641 126.165 202 116.5 202C106.835 202 99 213.641 99 228C99 242.359 106.835 254 116.5 254Z" fill="#5418D6"/>
</svg>
