<svg width="22" height="21" viewBox="0 0 22 21" fill="none" xmlns="http://www.w3.org/2000/svg">
<path d="M11.0082 17.4149L10.8992 17.5239L10.7793 17.4149C5.60218 12.7174 2.17984 9.61109 2.17984 6.46123C2.17984 4.28139 3.81471 2.64651 5.99455 2.64651C7.67302 2.64651 9.3079 3.73643 9.88556 5.21872H11.9128C12.4905 3.73643 14.1253 2.64651 15.8038 2.64651C17.9837 2.64651 19.6185 4.28139 19.6185 6.46123C19.6185 9.61109 16.1962 12.7174 11.0082 17.4149ZM15.8038 0.466675C13.9074 0.466675 12.0872 1.34951 10.8992 2.7337C9.71117 1.34951 7.89101 0.466675 5.99455 0.466675C2.6376 0.466675 0 3.09338 0 6.46123C0 10.5702 3.70572 13.9381 9.3188 19.028L10.8992 20.4667L12.4796 19.028C18.0926 13.9381 21.7984 10.5702 21.7984 6.46123C21.7984 3.09338 19.1608 0.466675 15.8038 0.466675Z" fill="black"/>
</svg>
