<svg width="50" height="50" viewBox="0 0 50 50" fill="none" xmlns="http://www.w3.org/2000/svg">
<path d="M34.0837 29.1667C34.2503 27.7917 34.3753 26.4167 34.3753 25.0001C34.3753 23.5834 34.2503 22.2084 34.0837 20.8334H41.1253C41.4587 22.1667 41.667 23.5626 41.667 25.0001C41.667 26.4376 41.4587 27.8334 41.1253 29.1667M30.3962 40.7501C31.6462 38.4376 32.6045 35.9376 33.2712 33.3334H39.417C37.3986 36.809 34.1964 39.4417 30.3962 40.7501ZM29.8753 29.1667H20.1253C19.917 27.7917 19.792 26.4167 19.792 25.0001C19.792 23.5834 19.917 22.1876 20.1253 20.8334H29.8753C30.0628 22.1876 30.2087 23.5834 30.2087 25.0001C30.2087 26.4167 30.0628 27.7917 29.8753 29.1667ZM25.0003 41.5834C23.2712 39.0834 21.8753 36.3126 21.0212 33.3334H28.9795C28.1253 36.3126 26.7295 39.0834 25.0003 41.5834ZM16.667 16.6667H10.5837C12.5808 13.1814 15.7809 10.5443 19.5837 9.25008C18.3337 11.5626 17.3962 14.0626 16.667 16.6667ZM10.5837 33.3334H16.667C17.3962 35.9376 18.3337 38.4376 19.5837 40.7501C15.7884 39.4424 12.5926 36.8088 10.5837 33.3334ZM8.87533 29.1667C8.54199 27.8334 8.33366 26.4376 8.33366 25.0001C8.33366 23.5626 8.54199 22.1667 8.87533 20.8334H15.917C15.7503 22.2084 15.6253 23.5834 15.6253 25.0001C15.6253 26.4167 15.7503 27.7917 15.917 29.1667M25.0003 8.39592C26.7295 10.8959 28.1253 13.6876 28.9795 16.6667H21.0212C21.8753 13.6876 23.2712 10.8959 25.0003 8.39592ZM39.417 16.6667H33.2712C32.6181 14.0868 31.6527 11.5961 30.3962 9.25008C34.2295 10.5626 37.417 13.2084 39.417 16.6667ZM25.0003 4.16675C13.4795 4.16675 4.16699 13.5417 4.16699 25.0001C4.16699 30.5254 6.36193 35.8245 10.2689 39.7315C12.2035 41.666 14.5001 43.2006 17.0278 44.2476C19.5554 45.2945 22.2645 45.8334 25.0003 45.8334C30.5257 45.8334 35.8247 43.6385 39.7317 39.7315C43.6387 35.8245 45.8337 30.5254 45.8337 25.0001C45.8337 22.2642 45.2948 19.5551 44.2478 17.0275C43.2008 14.4999 41.6663 12.2032 39.7317 10.2687C37.7972 8.33414 35.5005 6.79956 32.9729 5.75259C30.4453 4.70562 27.7362 4.16675 25.0003 4.16675Z" fill="#5418D6"/>
</svg>
