<svg width="16" height="22" viewBox="0 0 16 22" fill="none" xmlns="http://www.w3.org/2000/svg">
<path d="M15.6631 8.33592C15.6639 7.10038 15.3523 5.8847 14.7575 4.80179C14.1626 3.71888 13.3038 2.80386 12.2606 2.14172C11.2175 1.47958 10.024 1.0918 8.79086 1.0144C7.55775 0.937001 6.32508 1.17249 5.20735 1.69899C4.08961 2.22549 3.12305 3.02593 2.39746 4.02596C1.67187 5.02599 1.21078 6.19317 1.05701 7.4191C0.903234 8.64502 1.06177 9.88993 1.5179 11.0382C1.97403 12.1864 2.71295 13.2008 3.66602 13.9871V20.333C3.66594 20.4467 3.69493 20.5585 3.75024 20.6578C3.80555 20.7571 3.88533 20.8406 3.98201 20.9004C4.07869 20.9602 4.18906 20.9942 4.30261 20.9993C4.41617 21.0044 4.52914 20.9804 4.63079 20.9295L8.33156 19.0833L12.0332 20.9337C12.126 20.978 12.2277 21.0005 12.3306 20.9995C12.5074 20.9995 12.6769 20.9293 12.8019 20.8043C12.9269 20.6793 12.9971 20.5098 12.9971 20.333V13.9871C13.831 13.3002 14.5025 12.4373 14.9635 11.4603C15.4244 10.4832 15.6634 9.41624 15.6631 8.33592ZM2.33301 8.33592C2.33301 7.14951 2.68482 5.98976 3.34395 5.0033C4.00308 4.01684 4.93993 3.24799 6.03602 2.79398C7.13211 2.33996 8.33822 2.22117 9.50182 2.45263C10.6654 2.68408 11.7343 3.25539 12.5732 4.0943C13.4121 4.93321 13.9834 6.00205 14.2149 7.16566C14.4463 8.32926 14.3275 9.53537 13.8735 10.6315C13.4195 11.7276 12.6506 12.6644 11.6642 13.3235C10.6777 13.9827 9.51796 14.3345 8.33156 14.3345C6.74119 14.3327 5.21646 13.7001 4.0919 12.5756C2.96733 11.451 2.33478 9.92629 2.33301 8.33592ZM11.6641 19.2549L8.62899 17.7378C8.53639 17.6915 8.43427 17.6674 8.33073 17.6674C8.22719 17.6674 8.12507 17.6915 8.03247 17.7378L4.99903 19.2549V14.8652C6.03076 15.3925 7.17289 15.6675 8.33156 15.6675C9.49024 15.6675 10.6324 15.3925 11.6641 14.8652V19.2549ZM8.33156 13.0015C9.25432 13.0015 10.1564 12.7278 10.9236 12.2152C11.6908 11.7025 12.2888 10.9739 12.642 10.1213C12.9951 9.26882 13.0875 8.33074 12.9075 7.42571C12.7274 6.52069 12.2831 5.68937 11.6306 5.03688C10.9781 4.38439 10.1468 3.94004 9.24176 3.76002C8.33674 3.58 7.39865 3.6724 6.54614 4.02552C5.69362 4.37864 4.96496 4.97664 4.45231 5.74388C3.93965 6.51113 3.66602 7.41316 3.66602 8.33592C3.66735 9.57289 4.15932 10.7588 5.03399 11.6335C5.90866 12.5082 7.09459 13.0001 8.33156 13.0015ZM8.33156 5.00339C8.99067 5.00339 9.63498 5.19884 10.183 5.56502C10.731 5.9312 11.1582 6.45167 11.4104 7.06061C11.6626 7.66955 11.7286 8.33961 11.6001 8.98606C11.4715 9.63251 11.1541 10.2263 10.688 10.6924C10.222 11.1584 9.62815 11.4758 8.98171 11.6044C8.33526 11.733 7.6652 11.667 7.05626 11.4148C6.44732 11.1625 5.92685 10.7354 5.56067 10.1874C5.19448 9.63934 4.99903 8.99503 4.99903 8.33592C4.99903 7.45207 5.35014 6.60443 5.97511 5.97946C6.60008 5.35449 7.44772 5.00339 8.33156 5.00339Z" fill="#5418D6" stroke="#5418D6" stroke-width="0.5"/>
</svg>
