<svg width="26" height="20" viewBox="0 0 26 20" fill="none" xmlns="http://www.w3.org/2000/svg">
<path d="M0.967742 0.967742V0C0.711081 0 0.464932 0.101958 0.283445 0.283445C0.101958 0.464932 0 0.711081 0 0.967742H0.967742ZM24.1935 0.967742H25.1613C25.1613 0.711081 25.0593 0.464932 24.8778 0.283445C24.6964 0.101958 24.4502 0 24.1935 0V0.967742ZM0.967742 1.93548H24.1935V0H0.967742V1.93548ZM23.2258 0.967742V16.4516H25.1613V0.967742H23.2258ZM21.6129 18.0645H3.54839V20H21.6129V18.0645ZM1.93548 16.4516V0.967742H0V16.4516H1.93548ZM3.54839 18.0645C2.65806 18.0645 1.93548 17.3419 1.93548 16.4516H0C0 17.3927 0.373847 18.2952 1.0393 18.9607C1.70475 19.6262 2.6073 20 3.54839 20V18.0645ZM23.2258 16.4516C23.2258 17.3419 22.5032 18.0645 21.6129 18.0645V20C22.554 20 23.4565 19.6262 24.122 18.9607C24.7874 18.2952 25.1613 17.3927 25.1613 16.4516H23.2258Z" fill="black"/>
<path d="M2 1.99994L12.5807 12.5806L23 1.99994" stroke="black" stroke-width="1.5" stroke-linecap="round" stroke-linejoin="round"/>
</svg>
