<svg width="50" height="50" viewBox="0 0 50 50" fill="none" xmlns="http://www.w3.org/2000/svg">
<g clip-path="url(#clip0_825_2019)">
<path d="M14.6332 4.8124C16.1977 5.34239 17.686 6.07501 19.0602 6.99157C21.001 6.49555 22.9967 6.24636 24.9998 6.24991C27.0686 6.24991 29.0644 6.50824 30.9352 6.98949C32.3089 6.07381 33.7966 5.3419 35.3602 4.8124C36.8123 4.31865 38.8811 3.51866 40.1102 4.87907C40.9436 5.80407 41.1519 7.35407 41.2998 8.53741C41.4665 9.85824 41.5061 11.5791 41.0686 13.2874C42.7415 15.4478 43.7498 18.0249 43.7498 20.8332C43.7498 25.0874 41.4457 28.7812 38.0352 31.3395C36.394 32.5552 34.5736 33.5082 32.6394 34.1645C33.0852 35.1853 33.3332 36.3145 33.3332 37.4999V43.7499C33.3332 44.3024 33.1137 44.8323 32.723 45.223C32.3323 45.6137 31.8024 45.8332 31.2498 45.8332H18.7498C18.1973 45.8332 17.6674 45.6137 17.2767 45.223C16.886 44.8323 16.6665 44.3024 16.6665 43.7499V41.6853C14.6769 41.9291 13.0082 41.7124 11.5894 41.1103C10.1061 40.4812 9.07274 39.5061 8.29566 38.5728C7.55816 37.6895 6.75399 35.6978 5.59149 35.3103C5.33186 35.2239 5.0918 35.0871 4.88501 34.9079C4.67822 34.7287 4.50876 34.5105 4.38631 34.2657C4.13899 33.7715 4.09814 33.1993 4.27274 32.6749C4.44734 32.1505 4.82309 31.717 5.31733 31.4697C5.81157 31.2224 6.3838 31.1816 6.90816 31.3562C8.29566 31.8187 9.19983 32.8187 9.81858 33.6228C10.8186 34.9145 11.6311 36.602 13.2144 37.2749C13.8665 37.552 14.8227 37.7332 16.3186 37.5291L16.6665 37.4582C16.6705 36.3245 16.9066 35.2035 17.3602 34.1645C15.426 33.5083 13.6057 32.5552 11.9644 31.3395C8.55399 28.7812 6.24983 25.0895 6.24983 20.8332C6.24983 18.0291 7.25608 15.4541 8.92483 13.2957C8.48733 11.5874 8.52483 9.8624 8.69149 8.53949L8.70191 8.46032C8.85399 7.24782 9.03108 5.82074 9.88108 4.87907C11.1102 3.51866 13.1811 4.32074 14.6311 4.81449L14.6332 4.8124Z" fill="#5418D6"/>
</g>
<defs>
<clipPath id="clip0_825_2019">
<rect width="50" height="50" fill="white"/>
</clipPath>
</defs>
</svg>
