<svg width="21" height="21" viewBox="0 0 21 21" fill="none" xmlns="http://www.w3.org/2000/svg">
<path d="M20.6804 18.8092C19.159 16.179 16.8144 14.293 14.0783 13.3989C15.4317 12.5932 16.4832 11.3655 17.0714 9.90435C17.6595 8.44319 17.7517 6.82938 17.3339 5.31072C16.9161 3.79207 16.0113 2.45255 14.7585 1.49789C13.5058 0.543219 11.9742 0.0261841 10.3991 0.0261841C8.82406 0.0261841 7.29252 0.543219 6.03973 1.49789C4.78694 2.45255 3.88216 3.79207 3.46435 5.31072C3.04653 6.82938 3.13877 8.44319 3.72692 9.90435C4.31506 11.3655 5.36658 12.5932 6.71999 13.3989C3.98386 14.292 1.63932 16.178 0.117913 18.8092C0.0621202 18.9002 0.0251133 19.0014 0.00907567 19.1069C-0.00696196 19.2124 -0.00170548 19.3201 0.0245349 19.4235C0.0507754 19.527 0.0974683 19.6241 0.161859 19.7092C0.226249 19.7943 0.307032 19.8657 0.399443 19.919C0.491853 19.9724 0.594018 20.0067 0.699911 20.02C0.805803 20.0333 0.913277 20.0252 1.01599 19.9962C1.11871 19.9673 1.21458 19.918 1.29796 19.8514C1.38134 19.7848 1.45054 19.7022 1.50146 19.6084C3.38349 16.3558 6.71 14.4138 10.3991 14.4138C14.0883 14.4138 17.4148 16.3558 19.2968 19.6084C19.3477 19.7022 19.4169 19.7848 19.5003 19.8514C19.5837 19.918 19.6796 19.9673 19.7823 19.9962C19.885 20.0252 19.9925 20.0333 20.0984 20.02C20.2043 20.0067 20.3064 19.9724 20.3988 19.919C20.4912 19.8657 20.572 19.7943 20.6364 19.7092C20.7008 19.6241 20.7475 19.527 20.7737 19.4235C20.8 19.3201 20.8052 19.2124 20.7892 19.1069C20.7732 19.0014 20.7362 18.9002 20.6804 18.8092ZM4.805 7.22136C4.805 6.11495 5.13309 5.03338 5.74778 4.11343C6.36247 3.19348 7.23616 2.47646 8.25835 2.05305C9.28055 1.62965 10.4053 1.51887 11.4905 1.73472C12.5757 1.95057 13.5724 2.48336 14.3548 3.26571C15.1371 4.04807 15.6699 5.04485 15.8858 6.13C16.1016 7.21516 15.9909 8.33995 15.5674 9.36215C15.144 10.3843 14.427 11.258 13.5071 11.8727C12.5871 12.4874 11.5056 12.8155 10.3991 12.8155C8.91597 12.8139 7.494 12.224 6.44524 11.1753C5.39648 10.1265 4.80659 8.70453 4.805 7.22136Z" fill="black"/>
</svg>
