<svg width="25" height="19" viewBox="0 0 25 19" fill="none" xmlns="http://www.w3.org/2000/svg">
<path d="M0 4.66965V13.8318C8.33333 16.4054 16.6666 11.2582 25 13.8318V4.66965C16.6666 2.09601 8.33333 7.24323 0 4.66965Z" fill="#FFB636"/>
<path d="M8.32879 10.9294H6.55334V8.89819H8.04567C8.12075 8.89819 8.19277 8.92802 8.24586 8.98112C8.29896 9.03421 8.32879 9.10622 8.32879 9.18131V10.9294Z" fill="#E8E8E8"/>
<path d="M8.38155 7.55383H6.83418C6.88077 7.42967 6.90879 7.27425 6.90879 7.10502C6.90879 6.69961 6.74968 6.37097 6.55347 6.37097C6.35725 6.37097 6.19814 6.69961 6.19814 7.10502C6.19814 7.27425 6.22616 7.42967 6.27276 7.55383H4.72686C4.60668 7.55383 4.52155 7.67125 4.55895 7.78549L4.73841 8.33388C4.74994 8.36914 4.77228 8.39987 4.80226 8.42172C4.83224 8.44357 4.86833 8.45544 4.90543 8.45563L8.19939 8.47205C8.23696 8.47225 8.27362 8.46046 8.30403 8.4384C8.33443 8.41633 8.35701 8.38514 8.36848 8.34936L8.54975 7.78455C8.58637 7.67047 8.50134 7.55383 8.38155 7.55383Z" fill="#E2A042"/>
<path d="M4.20308 10.5202C4.20308 10.3989 4.1549 10.2826 4.06914 10.1968C3.98338 10.111 3.86706 10.0629 3.74577 10.0629C3.62448 10.0629 3.50816 10.111 3.4224 10.1968C3.33663 10.2826 3.28845 10.3989 3.28845 10.5202C3.28845 10.7023 3.39516 10.859 3.54916 10.9326V12.4814C3.54916 12.5201 3.58052 12.5514 3.6192 12.5514H3.87234C3.91102 12.5514 3.94238 12.5201 3.94238 12.4814V10.9326C4.09642 10.859 4.20308 10.7023 4.20308 10.5202ZM9.69181 10.5202C9.69181 10.3989 9.64363 10.2826 9.55786 10.1968C9.4721 10.111 9.35578 10.0629 9.23449 10.0629C9.11321 10.0629 8.99688 10.111 8.91112 10.1968C8.82536 10.2826 8.77718 10.3989 8.77718 10.5202C8.77718 10.7023 8.88384 10.859 9.03788 10.9326V12.4814C9.03788 12.5201 9.06924 12.5514 9.10792 12.5514H9.36106C9.39974 12.5514 9.4311 12.5201 9.4311 12.4814V10.9326C9.5851 10.859 9.69181 10.7023 9.69181 10.5202Z" fill="#E8E8E8"/>
<path d="M25 1.32935V4.66961C16.6666 2.09598 8.33333 7.24324 0 4.66961V1.84137C0 1.29863 0.506419 0.899606 1.03471 1.02391C8.83086 2.85844 16.6271 -1.50519 24.4232 0.576968C24.7635 0.667851 25 0.97707 25 1.32935ZM0 13.8318V17.172C0 17.5243 0.236424 17.8335 0.576757 17.9244C8.39836 20.0133 16.22 15.6143 24.0416 17.4956C24.5303 17.6132 25 17.2411 25 16.7384V13.8317C16.6666 11.2582 8.33333 16.4054 0 13.8318ZM6.55342 10.9294V8.89821H5.06105C5.02387 8.8982 4.98706 8.90552 4.95271 8.91974C4.91837 8.93397 4.88716 8.95482 4.86087 8.9811C4.83459 9.00739 4.81374 9.0386 4.79951 9.07295C4.78529 9.10729 4.77797 9.1441 4.77798 9.18128V11.6638C4.77798 12.1541 5.17543 12.5515 5.66572 12.5515C6.15602 12.5515 6.55342 12.154 6.55342 11.6638C6.55342 12.1541 6.95087 12.5515 7.44116 12.5515C7.93146 12.5515 8.32886 12.154 8.32886 11.6638V10.9294H6.55342ZM6.87581 7.59567C6.66092 7.60422 6.44597 7.61302 6.23108 7.62162V8.53001C6.44597 8.52249 6.66092 8.51467 6.87581 8.5072V7.59567ZM5.15483 8.55901C5.36977 8.55554 5.58469 8.55058 5.79957 8.54412V7.63774C5.58467 7.64531 5.36973 7.65195 5.15483 7.65642V8.55901ZM7.95206 7.56082C7.73716 7.56534 7.52222 7.57197 7.30732 7.57954V8.49309C7.52222 8.48661 7.73716 8.48159 7.95206 8.47815V7.56082Z" fill="#FF473E"/>
<path d="M6.1932 10.9294H6.5534V11.6638C6.5534 11.9562 6.41134 12.2148 6.1932 12.3765V10.9294ZM5.13814 12.3765V10.9294H4.77795V11.6638C4.77795 11.9562 4.92001 12.2148 5.13814 12.3765ZM5.84579 10.9294H5.4856V12.5331C5.60442 12.5577 5.72698 12.5577 5.84579 12.5331V10.9294Z" fill="#E2A042"/>
<path d="M7.15986 10.9294C7.15986 11.2644 6.88834 11.5359 6.55341 11.5359C6.21849 11.5359 5.94697 11.2644 5.94697 10.9294C5.94697 10.5945 6.21849 10.323 6.55341 10.323C6.88834 10.323 7.15986 10.5945 7.15986 10.9294ZM4.20308 12.6542V12.5025C4.20307 12.4419 4.17899 12.3838 4.13614 12.3409C4.09329 12.2981 4.03517 12.274 3.97457 12.274H3.51696C3.45636 12.274 3.39825 12.2981 3.3554 12.3409C3.31254 12.3838 3.28847 12.4419 3.28845 12.5025V12.6542C3.28847 12.7148 3.31254 12.7729 3.3554 12.8157C3.39825 12.8586 3.45636 12.8827 3.51696 12.8827H3.97457C4.00458 12.8827 4.0343 12.8768 4.06203 12.8653C4.08976 12.8538 4.11495 12.837 4.13617 12.8158C4.15739 12.7945 4.17422 12.7693 4.1857 12.7416C4.19718 12.7139 4.20309 12.6842 4.20308 12.6542ZM9.69181 12.6542V12.5025C9.6918 12.4419 9.66772 12.3838 9.62487 12.3409C9.58201 12.2981 9.5239 12.274 9.4633 12.274H9.00569C8.94509 12.274 8.88697 12.2981 8.84412 12.3409C8.80127 12.3838 8.77719 12.4419 8.77718 12.5025V12.6542C8.77719 12.7148 8.80127 12.7729 8.84412 12.8157C8.88697 12.8586 8.94509 12.8827 9.00569 12.8827H9.4633C9.5239 12.8827 9.58201 12.8586 9.62487 12.8157C9.66772 12.7729 9.6918 12.7148 9.69181 12.6542Z" fill="#575A5B"/>
</svg>
