<svg width="20" height="20" viewBox="0 0 20 20" fill="none" xmlns="http://www.w3.org/2000/svg">
<path d="M17.1169 2.9897L19.4638 4.99902L17.1112 7.01538C17.0303 7.07372 16.8968 7.14191 16.7393 7.19609C16.5764 7.25214 16.4282 7.27778 16.336 7.27778H10.7341L10.0773 2.72222H16.3272C16.4646 2.72747 16.6014 2.754 16.7338 2.80162L16.7415 2.80437L16.7492 2.80687C16.8772 2.84824 17.001 2.90944 17.1169 2.9897ZM7 4.94444H7.5V4.44444V0.555556C7.5 0.5281 7.50915 0.509009 7.51582 0.5H8.48418C8.49085 0.509008 8.5 0.528099 8.5 0.555556V19.4444C8.5 19.4719 8.49085 19.491 8.48418 19.5H7.51582C7.50915 19.491 7.5 19.4719 7.5 19.4444V10V9.5H7H3.664C3.56983 9.5 3.42258 9.47436 3.25967 9.4183L3.25655 9.41725C3.10103 9.36489 2.96885 9.29723 2.88782 9.23874L0.535042 7.22223L2.8899 5.20614C2.96754 5.14862 3.09782 5.08175 3.25655 5.02831L3.25656 5.02834L3.26205 5.02642C3.42338 4.97 3.57005 4.94444 3.664 4.94444H7Z" stroke="#5418D6"/>
</svg>
