<svg width="20" height="20" viewBox="0 0 20 20" fill="none" xmlns="http://www.w3.org/2000/svg">
<path d="M19.5815 4.97967L15.0214 0.41949C14.8887 0.286821 14.7312 0.18158 14.5579 0.109779C14.3845 0.037978 14.1988 0.00102234 14.0112 0.00102234C13.8235 0.00102234 13.6378 0.037978 13.4644 0.109779C13.2911 0.18158 13.1336 0.286821 13.001 0.41949L0.418367 13.0031C0.285444 13.1356 0.180046 13.293 0.108244 13.4664C0.0364411 13.6398 -0.000345786 13.8256 2.44941e-06 14.0133V18.5735C2.44941e-06 18.9524 0.150511 19.3157 0.418419 19.5836C0.686327 19.8515 1.04969 20.002 1.42857 20.002H5.98875C6.1764 20.0024 6.36227 19.9656 6.53565 19.8938C6.70903 19.822 6.86648 19.7166 6.99894 19.5837L19.5815 7.00007C19.7142 6.86741 19.8194 6.70992 19.8912 6.53659C19.963 6.36326 20 6.17748 20 5.98987C20 5.80226 19.963 5.61648 19.8912 5.44315C19.8194 5.26982 19.7142 5.11233 19.5815 4.97967ZM1.47857 13.6755L10.4081 4.74498L12.3989 6.7368L3.46937 15.6663L1.47857 13.6755ZM1.22449 18.5735V15.1531L4.84794 18.7776H1.42857C1.37444 18.7776 1.32253 18.7561 1.28426 18.7178C1.24599 18.6795 1.22449 18.6276 1.22449 18.5735ZM6.3265 18.5235L4.33569 16.5327L13.2652 7.60211L15.256 9.59393L6.3265 18.5235ZM18.7152 6.13477L16.1224 8.72761L11.2744 3.87968L13.8673 1.28581C13.8862 1.26684 13.9087 1.25179 13.9335 1.24151C13.9583 1.23124 13.9848 1.22596 14.0117 1.22596C14.0385 1.22596 14.065 1.23124 14.0898 1.24151C14.1146 1.25179 14.1371 1.26684 14.156 1.28581L18.7152 5.84599C18.7342 5.86495 18.7492 5.88745 18.7595 5.91223C18.7698 5.937 18.7751 5.96356 18.7751 5.99038C18.7751 6.0172 18.7698 6.04376 18.7595 6.06853C18.7492 6.09331 18.7342 6.11581 18.7152 6.13477Z" fill="#5418D6"/>
</svg>
