<svg width="20" height="20" viewBox="0 0 20 20" fill="none" xmlns="http://www.w3.org/2000/svg">
<path d="M19.5815 4.97865L15.0214 0.418468C14.8887 0.285798 14.7312 0.180558 14.5579 0.108757C14.3845 0.0369557 14.1988 0 14.0112 0C13.8235 0 13.6378 0.0369557 13.4644 0.108757C13.2911 0.180558 13.1336 0.285798 13.001 0.418468L0.418367 13.0021C0.285444 13.1345 0.180046 13.292 0.108244 13.4654C0.0364411 13.6387 -0.000345786 13.8246 2.44941e-06 14.0123V18.5725C2.44941e-06 18.9513 0.150511 19.3147 0.418419 19.5826C0.686327 19.8505 1.04969 20.001 1.42857 20.001H5.98875C6.1764 20.0014 6.36227 19.9646 6.53565 19.8928C6.70903 19.821 6.86648 19.7156 6.99894 19.5827L19.5815 6.99905C19.7142 6.86639 19.8194 6.7089 19.8912 6.53557C19.963 6.36224 20 6.17646 20 5.98885C20 5.80123 19.963 5.61546 19.8912 5.44213C19.8194 5.2688 19.7142 5.1113 19.5815 4.97865ZM1.47857 13.6745L10.4081 4.74396L12.3989 6.73578L3.46937 15.6653L1.47857 13.6745ZM1.22449 18.5725V15.1521L4.84794 18.7765H1.42857C1.37444 18.7765 1.32253 18.755 1.28426 18.7168C1.24599 18.6785 1.22449 18.6266 1.22449 18.5725ZM6.3265 18.5225L4.33569 16.5316L13.2652 7.60108L15.256 9.59291L6.3265 18.5225ZM18.7152 6.13374L16.1224 8.72659L11.2744 3.87865L13.8673 1.28479C13.8862 1.26582 13.9087 1.25076 13.9335 1.24049C13.9583 1.23022 13.9848 1.22494 14.0117 1.22494C14.0385 1.22494 14.065 1.23022 14.0898 1.24049C14.1146 1.25076 14.1371 1.26582 14.156 1.28479L18.7152 5.84497C18.7342 5.86392 18.7492 5.88643 18.7595 5.91121C18.7698 5.93598 18.7751 5.96254 18.7751 5.98936C18.7751 6.01618 18.7698 6.04273 18.7595 6.06751C18.7492 6.09228 18.7342 6.11479 18.7152 6.13374Z" fill="black"/>
</svg>
