<svg width="29" height="29" viewBox="0 0 29 29" fill="none" xmlns="http://www.w3.org/2000/svg">
<path d="M7.07102 21.2132C3.16114 17.3033 3.16114 10.981 7.07102 7.07107C10.9809 3.16118 17.3033 3.16118 21.2132 7.07107C25.123 10.981 25.123 17.3033 21.2132 21.2132C17.3033 25.1231 10.9809 25.1231 7.07102 21.2132ZM20.3813 7.90296C16.9289 4.45061 11.3553 4.45061 7.90291 7.90296C4.45057 11.3553 4.45057 16.929 7.90291 20.3813C11.3553 23.8337 16.9289 23.8337 20.3813 20.3813C23.8336 16.929 23.8336 11.3553 20.3813 7.90296Z" fill="black"/>
<path d="M9.89893 9.89954L18.3842 18.3848L9.89893 9.89954Z" fill="black" stroke="black"/>
<path d="M18.3843 9.89948L9.899 18.3848L18.3843 9.89948Z" fill="black" stroke="black"/>
</svg>
