<svg width="16" height="20" viewBox="0 0 16 20" fill="none" xmlns="http://www.w3.org/2000/svg">
<path d="M8 12C10.206 12 12 10.206 12 8C12 5.794 10.206 4 8 4C5.794 4 4 5.794 4 8C4 10.206 5.794 12 8 12ZM8 6C9.103 6 10 6.897 10 8C10 9.103 9.103 10 8 10C6.897 10 6 9.103 6 8C6 6.897 6.897 6 8 6Z" fill="black"/>
<path d="M7.42009 19.814C7.58934 19.9349 7.79211 19.9998 8.00009 19.9998C8.20806 19.9998 8.41084 19.9349 8.58009 19.814C8.88409 19.599 16.0291 14.44 16.0001 8C16.0001 3.589 12.4111 0 8.00009 0C3.58909 0 8.80377e-05 3.589 8.80377e-05 7.995C-0.028912 14.44 7.11609 19.599 7.42009 19.814ZM8.00009 2C11.3091 2 14.0001 4.691 14.0001 8.005C14.0211 12.443 9.61209 16.428 8.00009 17.735C6.38909 16.427 1.97909 12.441 2.00009 8C2.00009 4.691 4.69109 2 8.00009 2Z" fill="black"/>
</svg>
