<svg width="23" height="26" viewBox="0 0 23 26" fill="none" xmlns="http://www.w3.org/2000/svg">
<path d="M11.063 0C8.317 0 6.063 2.254 6.063 5V6H1.125L1.063 6.938L0.0630002 24.938L0 26H22.125L22.063 24.937L21.063 6.937L21 6H16.063V5C16.063 2.254 13.809 0 11.063 0ZM11.063 2C11.8586 2 12.6217 2.31607 13.1843 2.87868C13.7469 3.44129 14.063 4.20435 14.063 5V6H8.063V5C8.063 4.20435 8.37907 3.44129 8.94168 2.87868C9.50429 2.31607 10.2674 2 11.063 2ZM3 8H6.063V11H8.063V8H14.063V11H16.063V8H19.126L20.001 24H2.126L3 8Z" fill="black"/>
</svg>
