<svg width="22" height="22" viewBox="0 0 22 22" fill="none" xmlns="http://www.w3.org/2000/svg">
<path d="M20.2585 10.1952C19.809 9.76464 19.2192 9.51067 18.5976 9.4799C17.9759 9.44913 17.364 9.64361 16.8742 10.0276L14.8717 3.96625C14.705 3.45348 14.3933 3.00002 13.9743 2.66078C13.5552 2.32154 13.0468 2.11107 12.5105 2.05485L2.86246 1.0092C2.61239 0.982973 2.35963 1.01299 2.12266 1.09705C1.88569 1.18112 1.67052 1.3171 1.49289 1.49506C1.31526 1.67301 1.17966 1.88843 1.09603 2.12555C1.0124 2.36267 0.982841 2.61549 1.00952 2.86551L2.05517 12.5113C2.11139 13.0476 2.32186 13.556 2.6611 13.9751C3.00035 14.3941 3.45381 14.7058 3.96658 14.8725L10.0268 16.8626C9.65602 17.3164 9.45344 17.8844 9.45342 18.4704C9.4555 19.1407 9.7227 19.783 10.1967 20.257C10.6707 20.7309 11.3129 20.9981 11.9832 21.0002C12.6542 20.9984 13.2973 20.7312 13.7721 20.257L20.2596 13.7706C20.7337 13.2962 21 12.653 21 11.9823C21 11.3117 20.7337 10.6684 20.2596 10.194L20.2585 10.1952ZM4.31512 13.8043C4.00834 13.7029 3.73715 13.5154 3.53384 13.2643C3.33053 13.0131 3.20364 12.7089 3.16828 12.3877L2.15637 2.95433L6.66503 7.46299C6.58481 7.69857 6.57188 7.95184 6.62769 8.19436C6.68351 8.43687 6.80585 8.65902 6.98097 8.83583C7.10187 8.96193 7.24674 9.06263 7.40708 9.132C7.56742 9.20137 7.74 9.23802 7.91469 9.23981C8.08938 9.24159 8.26267 9.20847 8.42439 9.14239C8.58612 9.07632 8.73302 8.97861 8.85647 8.855C8.97993 8.73139 9.07746 8.58438 9.14334 8.42257C9.20923 8.26077 9.24213 8.08744 9.24014 7.91275C9.23814 7.73806 9.20128 7.56553 9.13171 7.40528C9.06215 7.24502 8.96128 7.10027 8.83503 6.97952C8.6617 6.80346 8.44118 6.68125 8.20001 6.62759C7.95885 6.57393 7.70731 6.59111 7.47568 6.67707L2.95578 2.15717L12.3891 3.16908C12.711 3.20192 13.0164 3.32789 13.2678 3.53158C13.5192 3.73527 13.7058 4.00784 13.8047 4.31593L15.9758 10.9046L10.905 15.9755L4.31512 13.8043ZM17.4802 10.9822C17.6775 10.7867 17.9282 10.654 18.2009 10.6009C18.4735 10.5477 18.7558 10.5766 19.012 10.6838C19.2682 10.791 19.487 10.9717 19.6406 11.2031C19.7942 11.4345 19.8758 11.7063 19.8751 11.984C19.8747 12.1682 19.8378 12.3504 19.7666 12.5202C19.6954 12.6901 19.5912 12.8441 19.4602 12.9735L12.9715 19.461C12.7041 19.7178 12.3478 19.8612 11.977 19.8612C11.6063 19.8612 11.2499 19.7178 10.9825 19.461C10.7224 19.1973 10.5766 18.8419 10.5766 18.4715C10.5766 18.1012 10.7224 17.7457 10.9825 17.4821L17.4802 10.9822Z" fill="#5418D6" stroke="#5418D6" stroke-width="0.5"/>
</svg>
