<svg width="21" height="20" viewBox="0 0 21 20" fill="none" xmlns="http://www.w3.org/2000/svg">
<path d="M20.6804 18.783C19.159 16.1528 16.8144 14.2668 14.0783 13.3727C15.4317 12.567 16.4832 11.3393 17.0714 9.87816C17.6595 8.41701 17.7517 6.80319 17.3339 5.28454C16.9161 3.76589 16.0113 2.42637 14.7585 1.4717C13.5058 0.517034 11.9742 0 10.3991 0C8.82406 0 7.29252 0.517034 6.03973 1.4717C4.78694 2.42637 3.88216 3.76589 3.46435 5.28454C3.04653 6.80319 3.13877 8.41701 3.72692 9.87816C4.31506 11.3393 5.36658 12.567 6.71999 13.3727C3.98386 14.2658 1.63932 16.1518 0.117913 18.783C0.0621202 18.874 0.0251133 18.9752 0.00907567 19.0807C-0.00696196 19.1862 -0.00170548 19.2939 0.0245349 19.3973C0.0507754 19.5008 0.0974683 19.5979 0.161859 19.683C0.226249 19.7681 0.307032 19.8395 0.399443 19.8929C0.491853 19.9462 0.594018 19.9806 0.699911 19.9938C0.805803 20.0071 0.913277 19.999 1.01599 19.97C1.11871 19.9411 1.21458 19.8918 1.29796 19.8252C1.38134 19.7586 1.45054 19.676 1.50146 19.5822C3.38349 16.3296 6.71 14.3876 10.3991 14.3876C14.0883 14.3876 17.4148 16.3296 19.2968 19.5822C19.3477 19.676 19.4169 19.7586 19.5003 19.8252C19.5837 19.8918 19.6796 19.9411 19.7823 19.97C19.885 19.999 19.9925 20.0071 20.0984 19.9938C20.2043 19.9806 20.3064 19.9462 20.3988 19.8929C20.4912 19.8395 20.572 19.7681 20.6364 19.683C20.7008 19.5979 20.7475 19.5008 20.7737 19.3973C20.8 19.2939 20.8052 19.1862 20.7892 19.0807C20.7732 18.9752 20.7362 18.874 20.6804 18.783ZM4.805 7.19518C4.805 6.08876 5.13309 5.00719 5.74778 4.08724C6.36247 3.16729 7.23616 2.45028 8.25835 2.02687C9.28055 1.60346 10.4053 1.49268 11.4905 1.70853C12.5757 1.92438 13.5724 2.45717 14.3548 3.23953C15.1371 4.02188 15.6699 5.01866 15.8858 6.10382C16.1016 7.18897 15.9909 8.31377 15.5674 9.33596C15.144 10.3582 14.427 11.2318 13.5071 11.8465C12.5871 12.4612 11.5056 12.7893 10.3991 12.7893C8.91597 12.7877 7.494 12.1978 6.44524 11.1491C5.39648 10.1003 4.80659 8.67835 4.805 7.19518Z" fill="#5418D6"/>
</svg>
