<svg width="10" height="20" viewBox="0 0 10 20" fill="none" xmlns="http://www.w3.org/2000/svg">
<path d="M8 1.25C8.26522 1.25 8.51957 1.3817 8.70711 1.61612C8.89464 1.85054 9 2.16848 9 2.5V17.5C9 17.8315 8.89464 18.1495 8.70711 18.3839C8.51957 18.6183 8.26522 18.75 8 18.75H2C1.73478 18.75 1.48043 18.6183 1.29289 18.3839C1.10536 18.1495 1 17.8315 1 17.5V2.5C1 2.16848 1.10536 1.85054 1.29289 1.61612C1.48043 1.3817 1.73478 1.25 2 1.25H8ZM2 0C1.46957 0 0.960859 0.263392 0.585786 0.732233C0.210714 1.20107 0 1.83696 0 2.5V17.5C0 18.163 0.210714 18.7989 0.585786 19.2678C0.960859 19.7366 1.46957 20 2 20H8C8.53043 20 9.03914 19.7366 9.41421 19.2678C9.78929 18.7989 10 18.163 10 17.5V2.5C10 1.83696 9.78929 1.20107 9.41421 0.732233C9.03914 0.263392 8.53043 0 8 0L2 0Z" fill="#5418D6"/>
<path d="M5 17.5C5.26522 17.5 5.51957 17.3683 5.70711 17.1339C5.89464 16.8995 6 16.5815 6 16.25C6 15.9185 5.89464 15.6005 5.70711 15.3661C5.51957 15.1317 5.26522 15 5 15C4.73478 15 4.48043 15.1317 4.29289 15.3661C4.10536 15.6005 4 15.9185 4 16.25C4 16.5815 4.10536 16.8995 4.29289 17.1339C4.48043 17.3683 4.73478 17.5 5 17.5Z" fill="#5418D6"/>
</svg>
