<svg width="30" height="20" viewBox="0 0 30 20" fill="none" xmlns="http://www.w3.org/2000/svg">
<path d="M2.69333 20C1.92556 20 1.285 19.7433 0.771667 19.23C0.258333 18.7167 0.00111111 18.0756 0 17.3067V2.69333C0 1.92556 0.257222 1.285 0.771667 0.771666C1.28611 0.258333 1.92611 0.00111111 2.69167 0H27.3083C28.075 0 28.715 0.257222 29.2283 0.771666C29.7417 1.28611 29.9989 1.92667 30 2.69333V17.3083C30 18.075 29.7428 18.7156 29.2283 19.23C28.7139 19.7444 28.0739 20.0011 27.3083 20H2.69333ZM2.69333 18.3333H27.3083C27.5639 18.3333 27.7989 18.2267 28.0133 18.0133C28.2278 17.8 28.3344 17.5644 28.3333 17.3067V2.69333C28.3333 2.43667 28.2267 2.20111 28.0133 1.98667C27.8 1.77222 27.565 1.66556 27.3083 1.66667H2.69167C2.43611 1.66667 2.20111 1.77333 1.98667 1.98667C1.77222 2.2 1.66556 2.43556 1.66667 2.69333V17.3083C1.66667 17.5639 1.77333 17.7989 1.98667 18.0133C2.2 18.2278 2.435 18.3344 2.69167 18.3333M8.71833 16.2833H21.2817V13.7167H8.71833V16.2833ZM3.71833 11.2833H6.28167V8.71666H3.71833V11.2833ZM8.71833 11.2833H11.2817V8.71666H8.71833V11.2833ZM13.7183 11.2833H16.2817V8.71666H13.7183V11.2833ZM18.7183 11.2833H21.2817V8.71666H18.7183V11.2833ZM23.7183 11.2833H26.2817V8.71666H23.7183V11.2833ZM3.71833 6.28333H6.28167V3.71667H3.71833V6.28333ZM8.71833 6.28333H11.2817V3.71667H8.71833V6.28333ZM13.7183 6.28333H16.2817V3.71667H13.7183V6.28333ZM18.7183 6.28333H21.2817V3.71667H18.7183V6.28333ZM23.7183 6.28333H26.2817V3.71667H23.7183V6.28333Z" fill="#5418D6"/>
</svg>
