<svg width="22" height="22" viewBox="0 0 22 22" fill="none" xmlns="http://www.w3.org/2000/svg">
<path d="M16.4808 16.8466C17.8697 17.9825 18.6923 19.0716 18.6923 21M5.51923 16.8466C4.13029 17.9825 3.30769 19.0711 3.30769 21M17.1538 8.63636C18.5428 7.50045 18.6923 5.92844 18.6923 4M4.84615 8.53977C3.45721 7.40386 3.30769 5.92892 3.30769 4M21 12.5063H17.1538M4.84615 12.5063H1M11 10V20" stroke="#5418D6" stroke-width="1.5" stroke-linecap="round" stroke-linejoin="round"/>
<path d="M11 20C7.7 20 5 17.3006 5 14.0013V9.49902C5 6.44953 7.7 5 11 5C14.3 5 17 6.19974 17 9.49902V14.0013C17 17.3006 14.3 20 11 20Z" stroke="#5418D6" stroke-width="1.5" stroke-linecap="round" stroke-linejoin="round"/>
<path d="M7.1715 5C7.07145 4.78983 7.0135 4.56727 7 4.34129C7.00277 3.45584 7.42398 2.60732 8.17156 1.98121C8.91914 1.35509 9.93227 1.00232 10.9895 1H11.0105C12.0677 1.00232 13.0809 1.35509 13.8284 1.98121C14.576 2.60732 14.9972 3.45584 15 4.34129C14.9904 4.54702 14.9375 4.74972 14.844 4.94012" stroke="#5418D6" stroke-width="1.5" stroke-linecap="round" stroke-linejoin="round"/>
</svg>
