<svg width="71" height="77" viewBox="0 0 71 77" fill="none" xmlns="http://www.w3.org/2000/svg">
<path d="M7.30019 69.144C6.23352 69.144 5.30019 68.9093 4.50019 68.44C3.71085 67.96 3.09752 67.288 2.66019 66.424C2.23352 65.5493 2.02019 64.5253 2.02019 63.352C2.02019 62.4667 2.14285 61.672 2.38819 60.968C2.63352 60.2533 2.98552 59.6453 3.44419 59.144C3.90285 58.632 4.45752 58.2427 5.10819 57.976C5.75885 57.7093 6.48952 57.576 7.30019 57.576C8.37752 57.576 9.31085 57.8107 10.1002 58.28C10.8895 58.7493 11.4975 59.416 11.9242 60.28C12.3615 61.144 12.5802 62.1627 12.5802 63.336C12.5802 64.2213 12.4575 65.0213 12.2122 65.736C11.9669 66.4507 11.6095 67.064 11.1402 67.576C10.6815 68.088 10.1269 68.4773 9.47619 68.744C8.82552 69.0107 8.10019 69.144 7.30019 69.144ZM7.30019 67.704C8.04685 67.704 8.68152 67.5333 9.20419 67.192C9.73752 66.8507 10.1429 66.3547 10.4202 65.704C10.7082 65.0533 10.8522 64.2693 10.8522 63.352C10.8522 61.976 10.5429 60.9093 9.92419 60.152C9.30552 59.3947 8.43085 59.016 7.30019 59.016C6.55352 59.016 5.91352 59.1867 5.38019 59.528C4.85752 59.8587 4.45219 60.3493 4.16419 61C3.88685 61.6507 3.74819 62.4347 3.74819 63.352C3.74819 64.7173 4.05752 65.784 4.67619 66.552C5.30552 67.32 6.18019 67.704 7.30019 67.704ZM22.6504 69.112C22.3838 69.112 22.1811 69.0427 22.0424 68.904C21.9038 68.7547 21.8344 68.552 21.8344 68.296V61.896C21.8344 61.6293 21.9038 61.4267 22.0424 61.288C22.1811 61.1493 22.3731 61.08 22.6184 61.08C22.8744 61.08 23.0664 61.1493 23.1944 61.288C23.3331 61.4267 23.4024 61.6293 23.4024 61.896V63.064H23.2424C23.4131 62.424 23.7278 61.9387 24.1864 61.608C24.6451 61.2773 25.2318 61.0853 25.9464 61.032C26.1384 61.0213 26.2878 61.0693 26.3944 61.176C26.5118 61.2827 26.5758 61.448 26.5864 61.672C26.6078 61.896 26.5598 62.0773 26.4424 62.216C26.3251 62.344 26.1438 62.4187 25.8984 62.44L25.5944 62.472C24.9011 62.536 24.3731 62.7547 24.0104 63.128C23.6478 63.5013 23.4664 64.0133 23.4664 64.664V68.296C23.4664 68.552 23.3971 68.7547 23.2584 68.904C23.1304 69.0427 22.9278 69.112 22.6504 69.112ZM35.8032 69.096C35.5472 69.096 35.3499 69.0213 35.2112 68.872C35.0725 68.712 35.0032 68.4933 35.0032 68.216V61.976C35.0032 61.6987 35.0725 61.4853 35.2112 61.336C35.3499 61.1867 35.5472 61.112 35.8032 61.112C36.0592 61.112 36.2565 61.1867 36.3952 61.336C36.5445 61.4853 36.6192 61.6987 36.6192 61.976V68.216C36.6192 68.4933 36.5499 68.712 36.4112 68.872C36.2725 69.0213 36.0699 69.096 35.8032 69.096ZM35.8032 59.448C35.4832 59.448 35.2325 59.368 35.0512 59.208C34.8805 59.048 34.7952 58.824 34.7952 58.536C34.7952 58.2373 34.8805 58.0133 35.0512 57.864C35.2325 57.704 35.4832 57.624 35.8032 57.624C36.1232 57.624 36.3685 57.704 36.5392 57.864C36.7205 58.0133 36.8112 58.2373 36.8112 58.536C36.8112 58.824 36.7205 59.048 36.5392 59.208C36.3685 59.368 36.1232 59.448 35.8032 59.448ZM46.9258 69.112C46.6698 69.112 46.4725 69.0427 46.3338 68.904C46.1951 68.7547 46.1258 68.552 46.1258 68.296V61.896C46.1258 61.6293 46.1951 61.4267 46.3338 61.288C46.4725 61.1493 46.6645 61.08 46.9098 61.08C47.1658 61.08 47.3578 61.1493 47.4858 61.288C47.6245 61.4267 47.6938 61.6293 47.6938 61.896V63.208L47.5178 62.856C47.7311 62.2907 48.0618 61.848 48.5098 61.528C48.9578 61.208 49.4965 61.048 50.1258 61.048C50.7765 61.048 51.3045 61.2027 51.7098 61.512C52.1151 61.8213 52.3925 62.296 52.5418 62.936H52.3178C52.5205 62.3493 52.8671 61.8907 53.3578 61.56C53.8485 61.2187 54.4191 61.048 55.0698 61.048C55.6671 61.048 56.1578 61.1653 56.5418 61.4C56.9258 61.624 57.2138 61.9707 57.4058 62.44C57.5978 62.8987 57.6938 63.48 57.6938 64.184V68.296C57.6938 68.552 57.6191 68.7547 57.4698 68.904C57.3311 69.0427 57.1338 69.112 56.8778 69.112C56.6218 69.112 56.4245 69.0427 56.2858 68.904C56.1471 68.7547 56.0778 68.552 56.0778 68.296V64.264C56.0778 63.6027 55.9605 63.1173 55.7258 62.808C55.5018 62.4987 55.1285 62.344 54.6058 62.344C54.0191 62.344 53.5551 62.5467 53.2138 62.952C52.8725 63.3573 52.7018 63.9173 52.7018 64.632V68.296C52.7018 68.552 52.6325 68.7547 52.4938 68.904C52.3551 69.0427 52.1578 69.112 51.9018 69.112C51.6458 69.112 51.4431 69.0427 51.2938 68.904C51.1551 68.7547 51.0858 68.552 51.0858 68.296V64.264C51.0858 63.6027 50.9738 63.1173 50.7498 62.808C50.5258 62.4987 50.1525 62.344 49.6298 62.344C49.0431 62.344 48.5791 62.5467 48.2378 62.952C47.9071 63.3573 47.7418 63.9173 47.7418 64.632V68.296C47.7418 68.84 47.4698 69.112 46.9258 69.112ZM67.9532 69.096C67.6972 69.096 67.4999 69.0213 67.3612 68.872C67.2225 68.712 67.1532 68.4933 67.1532 68.216V61.976C67.1532 61.6987 67.2225 61.4853 67.3612 61.336C67.4999 61.1867 67.6972 61.112 67.9532 61.112C68.2092 61.112 68.4065 61.1867 68.5452 61.336C68.6945 61.4853 68.7692 61.6987 68.7692 61.976V68.216C68.7692 68.4933 68.6999 68.712 68.5612 68.872C68.4225 69.0213 68.2199 69.096 67.9532 69.096ZM67.9532 59.448C67.6332 59.448 67.3825 59.368 67.2012 59.208C67.0305 59.048 66.9452 58.824 66.9452 58.536C66.9452 58.2373 67.0305 58.0133 67.2012 57.864C67.3825 57.704 67.6332 57.624 67.9532 57.624C68.2732 57.624 68.5185 57.704 68.6892 57.864C68.8705 58.0133 68.9612 58.2373 68.9612 58.536C68.9612 58.824 68.8705 59.048 68.6892 59.208C68.5185 59.368 68.2732 59.448 67.9532 59.448Z" fill="black"/>
<g clip-path="url(#clip0_209_1237)">
<path d="M43.6794 41.0773L43.369 43.8031L42.7719 50.4501L42.8675 50.7848L64.1221 31.1786L58.8681 30.4613L43.6794 41.0773Z" stroke="#040404" stroke-miterlimit="10"/>
<path d="M70.5701 42.1772L64.337 31.2742L61.0175 34.0478L70.5701 42.1772Z" stroke="#040404" stroke-miterlimit="10"/>
<path d="M17.4336 32.6132L21.2546 33.8087" stroke="#424040" stroke-width="0.25" stroke-miterlimit="10"/>
<path d="M1.36125 27.5204L6.25698 31.1308" stroke="#424040" stroke-width="0.25" stroke-miterlimit="10"/>
<path d="M20.8486 43.6835L27.1534 49.4937" stroke="#424040" stroke-width="0.25" stroke-miterlimit="10"/>
<path d="M23.3562 44.879L27.1773 49.5415" stroke="#424040" stroke-width="0.25" stroke-miterlimit="10"/>
<path d="M24.7652 46.0507L27.1295 49.4459" stroke="#424040" stroke-width="0.25" stroke-miterlimit="10"/>
<path d="M32.9566 40.4079L31.9775 42.3924" stroke="#424040" stroke-width="0.2593" stroke-miterlimit="10"/>
<path d="M33.3387 40.4318L35.2492 41.3882" stroke="#424040" stroke-width="0.25" stroke-miterlimit="10"/>
<path d="M32.8611 40.1688L28.9684 37.0366" stroke="#424040" stroke-width="0.2725" stroke-miterlimit="10"/>
<path d="M26.3892 39.1646L32.3596 40.1927" stroke="#424040" stroke-width="0.25" stroke-miterlimit="10"/>
<path d="M33.2432 40.1927L35.7746 36.8931" stroke="#424040" stroke-width="0.2657" stroke-miterlimit="10"/>
<path d="M33.6492 40.1927L40.5987 38.5429" stroke="#424040" stroke-width="0.2652" stroke-miterlimit="10"/>
<path d="M41.6256 46.5527L42.6048 50.6413" stroke="#424040" stroke-width="0.25" stroke-miterlimit="10"/>
<path d="M41.4107 47.1027L42.2227 50.5457" stroke="#424040" stroke-width="0.25" stroke-miterlimit="10"/>
<path d="M41.2674 48.0591L41.8167 50.3305" stroke="#424040" stroke-width="0.25" stroke-miterlimit="10"/>
<path d="M41.0764 48.5134L41.4585 50.1392" stroke="#424040" stroke-width="0.25" stroke-miterlimit="10"/>
<path d="M28.7773 45.955L27.7982 50.0197" stroke="#424040" stroke-width="0.25" stroke-miterlimit="10"/>
<path d="M28.9923 46.5049L28.1564 49.9241" stroke="#424040" stroke-width="0.25" stroke-miterlimit="10"/>
<path d="M29.1117 47.4374L28.5624 49.7327" stroke="#424040" stroke-width="0.25" stroke-miterlimit="10"/>
<path d="M29.3266 47.8917L28.9206 49.5415" stroke="#424040" stroke-width="0.25" stroke-miterlimit="10"/>
<path d="M44.3004 33.9521L39.524 35.0759" stroke="#424040" stroke-width="0.25" stroke-miterlimit="10"/>
<path d="M21.1113 1.36285L23.8816 7.00561" stroke="#424040" stroke-width="0.25" stroke-miterlimit="10"/>
<path d="M39.2614 9.63574L39.7151 15.9002" stroke="#424040" stroke-width="0.25" stroke-miterlimit="10"/>
<path d="M39.3808 9.68353L40.4793 14.5134" stroke="#424040" stroke-width="0.25" stroke-miterlimit="10"/>
<path d="M39.1419 9.65961L38.6882 13.3417" stroke="#424040" stroke-width="0.2132" stroke-miterlimit="10"/>
<path d="M23.8338 10.09C23.8338 10.09 31.6431 27.1139 32.5984 32.6132" stroke="#424040" stroke-width="0.25" stroke-miterlimit="10"/>
<path d="M20.5621 1.17157L21.183 6.14485" stroke="#424040" stroke-width="0.25" stroke-miterlimit="10"/>
<path d="M42.7719 50.2349L48.3841 45.1182" stroke="#424040" stroke-width="0.25" stroke-miterlimit="10"/>
<path d="M43.7033 41.6751L49.9842 37.3952" stroke="#424040" stroke-width="0.25" stroke-miterlimit="10"/>
<path d="M42.7958 49.4459L47.1423 45.4768" stroke="#424040" stroke-width="0.25" stroke-miterlimit="10"/>
<path d="M42.9152 48.5851L46.0915 45.692" stroke="#424040" stroke-width="0.25" stroke-miterlimit="10"/>
<path d="M43.0108 47.7004L45.3034 45.5963" stroke="#424040" stroke-width="0.25" stroke-miterlimit="10"/>
<path d="M43.1302 46.6484L44.4437 45.5246" stroke="#424040" stroke-width="0.25" stroke-miterlimit="10"/>
<path d="M43.8944 39.8579L46.6169 30.2939" stroke="#424040" stroke-width="0.25" stroke-miterlimit="10"/>
<path d="M44.0377 38.6146L45.9243 31.1786" stroke="#424040" stroke-width="0.25" stroke-miterlimit="10"/>
<path d="M44.4198 34.0239L45.9004 28.5963" stroke="#424040" stroke-width="0.25" stroke-miterlimit="10"/>
<path d="M44.0616 33.3066L45.1362 29.3615" stroke="#424040" stroke-width="0.25" stroke-miterlimit="10"/>
<path d="M43.7511 32.8762L44.3959 30.7004" stroke="#424040" stroke-width="0.25" stroke-miterlimit="10"/>
<path d="M43.1541 32.1111L45.3034 22.4276" stroke="#424040" stroke-width="0.25" stroke-miterlimit="10"/>
<path d="M42.6048 31.2503L44.2526 23.7426" stroke="#424040" stroke-width="0.25" stroke-miterlimit="10"/>
<path d="M42.0077 30.3896L43.2257 24.8903" stroke="#424040" stroke-width="0.25" stroke-miterlimit="10"/>
<path d="M41.4346 29.6006L42.3182 25.6315" stroke="#424040" stroke-width="0.25" stroke-miterlimit="10"/>
<path d="M40.7898 28.6442L41.3391 26.4445" stroke="#424040" stroke-width="0.25" stroke-miterlimit="10"/>
<path d="M62.9997 32.5654L64.146 33.9522" stroke="#424040" stroke-width="0.25" stroke-miterlimit="10"/>
<path d="M62.7131 32.8045L64.337 34.7412" stroke="#424040" stroke-width="0.25" stroke-miterlimit="10"/>
<path d="M62.2593 33.1871L64.4326 35.7933" stroke="#424040" stroke-width="0.25" stroke-miterlimit="10"/>
<path d="M33.1238 40.36L44.372 34.0478L43.8227 39.5471L33.1238 40.36Z" stroke="#070101" stroke-miterlimit="10" stroke-linejoin="round"/>
<path d="M20.777 0.693359L44.4198 33.9282L42.7003 50.8087L35.2492 46.7918L20.777 0.693359Z" stroke="#070101" stroke-miterlimit="10"/>
<path d="M20.4904 0.597778L17.3142 32.685L27.7265 50.1154L35.1537 46.7919L20.4904 0.597778Z" stroke="#040404" stroke-miterlimit="10"/>
<path d="M33.0044 40.36L17.4336 32.7567L21.3979 39.3558L33.0044 40.36Z" stroke="#040404" stroke-miterlimit="10" stroke-linecap="square" stroke-linejoin="round"/>
<path d="M27.6788 50.0675L0.119415 26.6357L21.2546 39.308L27.6788 50.0675Z" stroke="#040404" stroke-miterlimit="10" stroke-linejoin="round"/>
<path d="M43.6794 40.9817L48.8379 26.6357L39.2852 9.42053L34.0313 18.0281L33.5775 18.6737L37.7568 24.5077L42.2465 30.9156L44.4198 34L43.6794 40.9817Z" stroke="#040404" stroke-miterlimit="10"/>
</g>
<defs>
<clipPath id="clip0_209_1237">
<rect width="71" height="51" fill="white"/>
</clipPath>
</defs>
</svg>
